<?xml version="1.0" encoding="utf-8"?>
<!-- Generator: Adobe Illustrator 25.0.1, SVG Export Plug-In . SVG Version: 6.00 Build 0)  -->
<svg version="1.1" id="Layer_1" xmlns="http://www.w3.org/2000/svg" xmlns:xlink="http://www.w3.org/1999/xlink" x="0px" y="0px"
	 viewBox="0 0 1831.11 864.31" style="enable-background:new 0 0 1831.11 864.31;" xml:space="preserve">
<style type="text/css">
	.st0{fill:#2484C6;}
	.st1{fill:url(#SVGID_1_);}
	.st2{fill:url(#SVGID_2_);}
	.st3{fill:#FFFFFF;}
</style>
<g>
	<g>
		<path class="st0" d="M1689.49,452.89c19.04,0,34.48,6.76,46.32,20.28c11.82,13.53,17.74,34.42,17.74,62.68v169.69h-65.91v-166
			c0-11.67-2.38-20.2-7.14-25.58c-4.77-5.37-11.6-8.06-20.51-8.06c-8.92,0-16.75,3.08-23.51,9.22
			c-6.76,6.15-12.14,13.67-16.13,22.58v167.84h-65.91V369.68l65.91-22.85v151.23c7.06-14.13,16.51-25.19,28.34-33.18
			C1660.53,456.89,1674.13,452.89,1689.49,452.89z"/>
		<path class="st0" d="M1161.88,451.99c14.75,0,28.04,1.85,39.86,5.53c11.83,3.68,22.04,9.22,30.65,16.59
			c8.6,7.37,15.21,16.52,19.82,27.42c4.61,10.91,6.91,23.43,6.91,37.56v100.47c0,8.3,3.38,12.45,10.14,12.45
			c4.3,0,8.52-1.22,12.67-3.69c4.14-2.46,7.44-5.37,9.91-8.76l7.83,56.69c-5.23,3.39-11.99,5.76-20.28,7.15
			c-8.29,1.38-15.52,2.08-21.66,2.08c-16.59,0-30.27-4.08-41.02-12.22c-10.76-8.13-17.82-18.97-21.2-32.49
			c-7.07,13.52-15.98,24.35-26.73,32.49c-10.76,8.14-24.88,12.22-42.4,12.22c-9.22,0-17.9-1.54-26.04-4.61
			c-8.15-3.07-15.21-7.45-21.2-13.13c-5.99-5.68-10.68-12.67-14.06-20.97c-3.38-8.29-5.07-17.66-5.07-28.11
			c0-11.36,2.31-21.73,6.92-31.11c4.61-9.37,11.06-17.36,19.36-23.97c8.29-6.6,18.43-11.67,30.42-15.21
			c11.98-3.53,25.35-5.3,40.09-5.3c10.75,0,23.2,1.23,37.33,3.69v-28.57c0-26.73-11.06-40.1-33.18-40.1
			c-12.9,0-23.35,4.38-31.34,13.14c-7.99,8.75-13.83,23.73-17.52,44.93l-54.84-25.35c3.99-23.97,15.21-43.09,33.65-57.38
			C1109.34,459.13,1133,451.99,1161.88,451.99z M1154.05,656.62c9.22,0,17.05-3.22,23.5-9.68s11.99-14.75,16.59-24.89v-24.88
			c-12.29-1.22-22.81-1.15-31.57,0.23c-8.76,1.38-15.75,3.62-20.97,6.68c-5.23,3.08-9.06,6.92-11.52,11.52
			c-2.46,4.61-3.69,9.68-3.69,15.21c0,8.6,2.38,15.14,7.15,19.59C1138.29,654.85,1145.13,656.93,1154.05,656.62z"/>
		<path class="st0" d="M1422.83,706.38c-27.97,0-51.47-6.45-70.51-19.36c-19.06-12.9-30.73-31.03-35.03-54.38l54.84-18.44
			c1.22,13.83,6.22,25.28,14.98,34.34c8.76,9.07,21.89,13.6,39.41,13.6c8.6,0,15.44-2.15,20.51-6.45c5.07-4.3,7.6-9.98,7.6-17.05
			c0-8.6-3.31-15.13-9.91-19.59c-6.61-4.45-14.83-8.13-24.66-11.06c-9.84-2.92-20.44-5.83-31.8-8.76
			c-11.37-2.92-21.97-7.15-31.8-12.67c-9.84-5.53-18.06-13.06-24.66-22.58c-6.61-9.52-9.91-22.42-9.91-38.71
			c0-11.67,2.31-21.96,6.91-30.88c4.61-8.91,10.9-16.43,18.9-22.58c7.99-6.14,17.43-10.83,28.34-14.06
			c10.9-3.22,22.5-4.84,34.8-4.84c13.52,0,26.04,1.69,37.56,5.07c11.52,3.39,21.66,8.3,30.42,14.75
			c8.75,6.45,15.9,14.22,21.43,23.27c5.53,9.07,8.91,19.44,10.14,31.11l-53.92,18.9c-0.31-14.75-4.53-26.65-12.67-35.72
			c-8.15-9.06-19.29-13.59-33.41-13.59c-8.29,0-14.98,2.23-20.05,6.68c-5.07,4.46-7.6,10.22-7.6,17.28c0,8.92,3.23,15.67,9.68,20.28
			c6.45,4.61,14.59,8.46,24.43,11.52c9.83,3.08,20.35,5.99,31.57,8.76c11.21,2.76,21.73,6.84,31.57,12.22
			c9.83,5.38,17.97,12.75,24.43,22.12c6.45,9.37,9.68,22.2,9.68,38.48c0,10.45-2.23,20.13-6.68,29.04
			c-4.46,8.92-10.68,16.59-18.67,23.04c-7.99,6.45-17.59,11.45-28.8,14.97C1448.71,704.6,1436.35,706.38,1422.83,706.38z"/>
		<path class="st0" d="M957.29,636.52c-4.73,6.83-10.35,11.68-16.85,14.56c-6.5,2.87-14.04,4.31-22.6,4.31
			c-9.75,0-18.25-1.57-25.49-4.72c-7.25-3.13-13.23-8.47-17.95-15.99c-4.73-7.51-8.2-17.49-10.41-29.93
			c-2.22-12.43-3.33-27.81-3.33-46.12c0-18.58,1.11-34.1,3.33-46.53c2.22-12.44,5.61-22.55,10.19-30.34
			c4.58-7.79,10.56-13.33,17.95-16.61c7.38-3.28,16.1-4.92,26.15-4.92c8.57,0,16.03,1.43,22.38,4.31
			c6.35,2.87,11.89,7.72,16.62,14.56c2.32,3.36,4.41,7.21,6.27,11.53h66.98c-6.13-21.27-15.58-38.35-28.48-51.09
			c-19.8-19.54-47.58-29.31-83.34-29.31c-40.49,0-71.07,12.5-91.75,37.51c-20.69,25.01-31.03,61.98-31.03,110.9
			c0,48.38,10.34,84.94,31.03,109.67c20.68,24.74,51.27,37.11,91.75,37.11c58.47,0,95.55-25.89,111.28-77.65h-67.78
			C960.7,630.94,959.09,633.93,957.29,636.52z"/>
		<circle class="st0" cx="725.04" cy="378.23" r="31.11"/>
		<polygon class="st0" points="693.93,459.4 760.44,438.76 760.44,705.4 693.93,705.4 		"/>
	</g>
	<polygon class="st0" points="80.93,310.82 286.81,187.81 83.39,63.51 	"/>
	<linearGradient id="SVGID_1_" gradientUnits="userSpaceOnUse" x1="77.5548" y1="663.3816" x2="533.3419" y2="663.3816">
		<stop  offset="0" style="stop-color:#645FAA"/>
		<stop  offset="0.9944" style="stop-color:#2484C6"/>
	</linearGradient>
	<polygon class="st1" points="533.34,671.87 294.43,525.96 77.55,655.09 316.61,800.8 	"/>
	<linearGradient id="SVGID_2_" gradientUnits="userSpaceOnUse" x1="77.5548" y1="442.8744" x2="571.5938" y2="442.8744">
		<stop  offset="0" style="stop-color:#C4161C"/>
		<stop  offset="0.5223" style="stop-color:#F26522"/>
		<stop  offset="0.9944" style="stop-color:#FDB913"/>
	</linearGradient>
	<polygon class="st2" points="571.59,360.93 357.15,230.66 79.62,396.04 77.55,655.09 	"/>
	<g>
		<path class="st3" d="M141.1,159.01c0.7,2.01,1.25,4.02,1.66,6.02c1.5-0.3,2.86-0.45,4.06-0.45c4.42,0,8.56,1.38,12.42,4.14
			c3.86,2.76,6.45,6.3,7.75,10.61c0.9,3.11,1.35,6.68,1.35,10.69c0,4.12-1.56,9.13-4.67,15.06l-13.4-10.69
			c4.61-4.92,6.92-8.43,6.92-10.54c0-5.12-1.41-7.68-4.22-7.68c-2.21,0-4.62,0.6-7.23,1.81c-1.2,0.5-2.41,1.05-3.61,1.66v-0.15
			c-0.8,2.71-2.26,5.97-4.37,9.79c-2.01,3.41-4.32,6.37-6.93,8.88l25.14,21.83l-6.32,9.64l-27.4-27.1
			c-5.42-5.32-8.68-8.68-9.79-10.09c-3.21-4.01-4.82-7.93-4.82-11.74c0-6.93,3.56-10.39,10.69-10.39c1.2,0,2.91,0.35,5.12,1.05
			c2.21,0.7,3.66,1.05,4.37,1.05c1.6,0,2.41-1.96,2.41-5.87v-1.81c0-2.21-0.5-4.11-1.51-5.72h-12.8
			c-7.23-2.51-10.84-7.28-10.84-14.3h24.84C133.17,144.71,136.89,149.48,141.1,159.01z M151.19,159.01
			c-7.23-2.51-10.84-7.28-10.84-14.3h28v14.3H151.19z"/>
	</g>
</g>
</svg>
